<?xml version="1.0" encoding="UTF-8"?>
<svg width="209px" height="68px" viewBox="0 0 209 68" version="1.1" xmlns="http://www.w3.org/2000/svg" xmlns:xlink="http://www.w3.org/1999/xlink">
    <!-- Generator: sketchtool 47.1 (45422) - http://www.bohemiancoding.com/sketch -->
    <title>FCBC41F8-750F-441D-91E5-243C4F3F1213</title>
    <desc>Created with sketchtool.</desc>
    <defs>
        <path d="M32.6699954,21.0636394 L32.6743391,21.0393958 C32.7319175,20.7171581 32.7784853,20.3929001 32.8138405,20.0676319 C32.9714235,18.6200875 32.9113197,17.1482996 32.6325189,15.7189379 C32.4599857,14.8340468 32.2033072,13.9653182 31.867231,13.1289143 C31.5365087,12.3056424 31.1289141,11.512675 30.6522254,10.7651643 C30.1632128,9.99745057 29.6015707,9.27620376 28.9776025,8.61354562 C28.413435,8.01553706 27.7985581,7.46500553 27.141356,6.97003222 C26.4468794,6.44677473 25.7051279,5.98715667 24.9280213,5.59723892 C24.3002145,5.2830824 23.6493763,5.0143826 22.9822748,4.79518014 C22.2759795,4.56385588 21.5515015,4.3870797 20.8177302,4.26788205 C20.2774022,4.17999904 19.7319225,4.12343066 19.1850285,4.09716677 C18.3099375,4.05474049 17.430806,4.09211602 16.562382,4.20828322 C15.9250798,4.29313579 15.2935354,4.42142479 14.6735067,4.59112992 C13.8808438,4.80831209 13.1072727,5.09418442 12.363703,5.44470633 C11.6418514,5.78512675 10.948486,6.18514599 10.2927991,6.63971331 C9.46245772,7.21549858 8.69282618,7.87815671 7.99986484,8.61354562 C7.31619687,9.33984318 6.70758287,10.1358411 6.18715476,10.986387 C5.66985812,11.8308721 5.24014128,12.7299052 4.90780268,13.6632835 C4.59879849,14.531002 4.37424266,15.429025 4.2377717,16.3401799 C4.13352446,17.036173 4.08059272,17.7402472 4.07837039,18.4443215 C4.07473386,19.5989225 4.20777031,20.7525133 4.47828787,21.8747895 C4.6747616,22.6909904 4.9434609,23.4890086 5.27984009,24.2577324 C5.61763348,25.0294867 6.02371286,25.7709365 6.49110821,26.4709702 C6.90001601,27.084131 7.35559263,27.6659772 7.85268632,28.2094377 C8.45635059,28.8690654 9.12112881,29.474145 9.83601035,30.0115446 C10.9624261,30.8600702 12.2126859,31.5419212 13.5366865,32.026793 C14.5283485,32.3904469 15.5600124,32.6429843 16.6072325,32.7793544 C17.2154425,32.8591563 17.8286021,32.8995623 18.4419638,32.9015826 C19.291397,32.9036028 20.1410323,32.8328924 20.9779397,32.6874308 C21.9223268,32.5227765 22.8498444,32.2621579 23.7423099,31.9126461 C24.6820503,31.5439415 25.582395,31.0752321 26.4242521,30.5186396 C26.6930524,30.3408533 26.9558928,30.1539756 27.2122683,29.9580066 C27.3439916,29.8580018 27.4736946,29.7549666 27.6021853,29.649911 L30.1534144,32.783395 C29.9914877,32.9157246 29.8279448,33.0450238 29.6619776,33.1712925 C29.357115,33.4036269 29.0449793,33.62687 28.7261767,33.8400115 C27.7607785,34.4854971 26.7343674,35.0400692 25.664823,35.4916061 C24.3562777,36.0451681 22.983689,36.4461975 21.5829171,36.6825725 C20.6374189,36.8431863 19.6794958,36.929049 18.7206636,36.9401606 C17.5117188,36.9553129 16.3015618,36.8532878 15.112719,36.6330752 C13.6791173,36.3674058 12.2780425,35.930011 10.9478799,35.3330126 C10.0484444,34.9289528 9.18183868,34.4531723 8.35846728,33.910722 C7.57166322,33.3935254 6.82455797,32.8147097 6.12553575,32.1833662 C5.3456007,31.4782818 4.62556741,30.7075376 3.97594141,29.8812353 C3.323487,29.0508923 2.74204598,28.1649911 2.24070966,27.2356535 C1.70674558,26.246717 1.26379581,25.2082832 0.919537466,24.1375246 C0.58598669,23.100101 0.345470519,22.033383 0.201019396,20.952523 C-0.0119197431,19.359517 -0.0168694669,17.7382269 0.185968195,16.1442109 C0.282942375,15.3825581 0.427696543,14.6269662 0.61922055,13.8824859 C0.919739496,12.7157631 1.33602137,11.5783347 1.85947992,10.4924239 C2.42334437,9.32267064 3.111457,8.21352638 3.90775644,7.18822454 C4.72213753,6.13968926 5.64945313,5.17802684 6.66849015,4.32647073 C7.69176979,3.47188417 8.80747794,2.72740391 9.99046193,2.11222281 C10.804843,1.68795998 11.6509427,1.32632642 12.5194678,1.02833229 C13.3657695,0.739429506 14.2332844,0.512145846 15.112719,0.348501611 C15.837601,0.214151715 16.5705642,0.124248401 17.3062547,0.077781519 C17.5616201,0.0606089759 17.8171875,0.0505074799 18.0729569,0.0444465823 C18.1916492,0.0414161335 18.3103416,0.0404059839 18.4290339,0.0393958343 C18.4688337,0.0393958343 18.5086336,0.0393958343 18.5484334,0.0393958343 C18.8051119,0.0414161335 19.0616894,0.0464668815 19.3181659,0.0585886767 C19.8252601,0.0808119678 20.3315461,0.124248401 20.8351048,0.187887825 C22.1419329,0.354562509 23.4303763,0.661647987 24.6713428,1.10308336 C25.8329116,1.5172447 26.9523573,2.04757323 28.0077596,2.68497763 C29.0994263,3.34460532 30.1224029,4.11635961 31.0556784,4.98508827 C32.0146116,5.87806051 32.8785909,6.87305786 33.6284236,7.94684689 C34.3415879,8.96911828 34.95101,10.0621001 35.44376,11.2065996 C35.7942813,12.0207802 36.0856079,12.8612247 36.3147094,13.7168214 C36.5380531,14.5522151 36.702101,15.4017509 36.8057422,16.2593679 C36.989185,17.7776228 36.9845383,19.3181009 36.7918022,20.8353456 C36.7390725,21.2495069 36.6722007,21.6626581 36.5912878,22.0727789 C36.5492657,22.2859204 36.5031019,22.499062 36.4538067,22.7101833 L36.4357251,22.7061427 C36.3702675,22.9354466 36.2942034,23.1617201 36.2066236,23.383953 C36.0514649,23.7779114 35.860345,24.1577276 35.6327587,24.5143104 C35.4073947,24.8668526 35.1463725,25.1971716 34.8536317,25.497186 C34.5105856,25.8487181 34.1244061,26.1578238 33.7070131,26.4164221 C33.2425471,26.7043148 32.7403017,26.9295781 32.2182574,27.0901919 C31.9465276,27.1740343 31.6694441,27.2407042 31.3892291,27.2891914 C31.1680068,27.3275771 30.9447641,27.353841 30.7207134,27.3669729 C30.581111,27.3760643 30.4413065,27.3780845 30.3015021,27.3770744 C30.1003817,27.3760643 29.8993623,27.3679831 29.698949,27.3528308 C29.049626,27.3033335 28.4052528,27.1750445 27.7905779,26.9588725 C27.4668255,26.8447256 27.1515584,26.7063351 26.8497263,26.5426908 C26.5389039,26.3739958 26.2422235,26.1800471 25.9646349,25.9608447 C25.6607824,25.7214392 25.3799614,25.4537496 25.1264143,25.1618163 C25.0100453,25.0274664 24.8995351,24.8880658 24.7949848,24.7456347 C24.7489221,24.7921016 24.7023543,24.8375583 24.6552814,24.883015 C24.2332417,25.2901053 23.7709981,25.6557795 23.2772379,25.9729665 C22.8394399,26.2527779 22.3768932,26.4952138 21.896669,26.6952234 C21.3571491,26.9204868 20.795406,27.0901919 20.2221471,27.2043388 C19.6517167,27.3174756 19.0702757,27.374044 18.4887337,27.374044 C17.9256773,27.374044 17.362722,27.320506 16.8097671,27.2144403 C16.2177196,27.1013036 15.6373897,26.9275578 15.0807983,26.6952234 C14.5510768,26.4750108 14.0429725,26.2032806 13.5657788,25.8850834 C13.1224249,25.5891096 12.705739,25.2527298 12.3221859,24.883015 C11.9517647,24.5254221 11.6122541,24.1365145 11.3089067,23.7203329 C10.9929325,23.2869787 10.7161521,22.8253403 10.483313,22.3424888 C10.086426,21.5192169 9.81853479,20.635336 9.69176125,19.7302419 C9.56125017,18.798884 9.57882674,17.8463129 9.74438995,16.9210159 C9.89510399,16.0785511 10.169056,15.2583097 10.5548315,14.4946366 C10.7881756,14.0319881 11.0621276,13.5905527 11.372344,13.1753812 C11.6805401,12.7632402 12.0245964,12.3783732 12.3991592,12.0248208 C13.1133336,11.3520612 13.9385233,10.7984992 14.832605,10.3944394 C15.5824377,10.0550291 16.3795452,9.82168454 17.1938253,9.70147674 C17.472222,9.66107075 17.752437,9.63379671 18.0333591,9.61965462 C18.1660925,9.61258357 18.2988259,9.60955312 18.4316603,9.60753282 C18.4697429,9.60753282 18.5077244,9.60753282 18.545807,9.60753282 C18.6786414,9.60955312 18.8113748,9.61258357 18.9441082,9.61965462 C19.2250303,9.63379671 19.5052453,9.66107075 19.783541,9.70147674 C20.5979221,9.82168454 21.3949286,10.0550291 22.1448623,10.3944394 C23.038843,10.7984992 23.8640327,11.3520612 24.5782071,12.0248208 C24.9527699,12.3783732 25.2968262,12.7632402 25.6051233,13.1753812 C25.9153397,13.5905527 26.1892917,14.0319881 26.4226359,14.4946366 C26.8084113,15.2583097 27.0822623,16.0785511 27.2329764,16.9210159 C27.3689422,17.6816586 27.4051055,18.4594738 27.3413652,19.2292077 C27.33985,19.3504257 27.340254,19.4726538 27.3428804,19.5938717 C27.3472241,19.7918611 27.3575276,19.9908605 27.3752051,20.1888499 C27.3888421,20.3423926 27.4069238,20.4959353 27.4304602,20.6484679 C27.44935,20.770696 27.4718763,20.8939343 27.4984432,21.0151522 C27.5186461,21.108086 27.5412734,21.2000096 27.5666281,21.2909231 C27.5855179,21.3586031 27.6058219,21.4262831 27.6279441,21.4939631 C27.7530004,21.8727692 27.9337158,22.2414738 28.2024151,22.5404781 C28.2444373,22.5879552 28.2885807,22.6324017 28.3346435,22.6758382 C28.4051518,22.7414979 28.4803068,22.8021069 28.5593003,22.8566549 C28.8880024,23.0869691 29.2763032,23.2182885 29.6697557,23.2839482 C29.8511782,23.3132426 30.0348231,23.3304151 30.21867,23.3354659 C30.2690763,23.336476 30.3195837,23.3374862 30.3699901,23.336476 C30.4000925,23.336476 30.4301949,23.336476 30.4601963,23.3354659 C30.4874703,23.3334456 30.5147443,23.3314253 30.5420182,23.329405 C30.6917221,23.3142527 30.8400118,23.2839482 30.9844629,23.2425321 C31.2204334,23.1738419 31.4479187,23.0718168 31.6515645,22.9344365 C31.7526803,22.8657463 31.8478362,22.7879648 31.9349109,22.7021021 C31.9894589,22.6485641 32.0407744,22.5919958 32.0888574,22.5323969 C32.3341213,22.2283419 32.4864516,21.8596373 32.5806984,21.4828515 C32.5970628,21.4171918 32.6118109,21.351532 32.6249428,21.2848622 C32.63959,21.2111213 32.6520148,21.1363702 32.6633284,21.0626293 L32.6699954,21.0636394 Z M23.3303717,18.3907836 C23.3246138,18.1059214 23.2940063,17.8220694 23.2387513,17.5432681 C23.1485451,17.0887007 22.9917701,16.6472654 22.7751945,16.2371446 C22.525486,15.7643946 22.1966829,15.3330607 21.8072709,14.9663764 C21.431799,14.6118139 21.0000619,14.3188705 20.5325655,14.0996681 C20.1285064,13.9107701 19.6982845,13.7794507 19.2578601,13.7087402 C19.10654,13.6844966 18.9541087,13.6683342 18.8012734,13.6582327 C18.7181382,13.653182 18.634902,13.6501515 18.5516659,13.6491414 C18.5201493,13.6481312 18.4886326,13.6481312 18.457116,13.6481312 C18.3840824,13.6491414 18.3111497,13.6511617 18.238217,13.6541921 C18.0847756,13.6622733 17.9317382,13.6774256 17.779711,13.6996488 C17.3378724,13.7642984 16.9053271,13.8915773 16.4984396,14.0754245 C16.0457924,14.2804849 15.62547,14.5552456 15.2558569,14.8875848 C14.8361405,15.2643706 14.4822858,15.7138871 14.2158088,16.2118909 C14.0016575,16.6109 13.8445795,17.0412237 13.7507368,17.4846794 C13.636085,18.0271297 13.6156801,18.589783 13.6892188,19.1393044 C13.7536662,19.6221559 13.8917534,20.0938958 14.0977225,20.534321 C14.3451077,21.0636394 14.689063,21.5475011 15.1070621,21.9556015 C15.5392033,22.3768339 16.049631,22.7182645 16.6060203,22.9536293 C16.9068423,23.0809082 17.2207962,23.1768724 17.5413161,23.2405118 C17.8428452,23.3011208 18.1499301,23.3314253 18.4573181,23.3334456 C18.7856161,23.3354659 19.1141161,23.3051614 19.4361512,23.2405118 C19.7374783,23.180913 20.0329465,23.0920198 20.3173031,22.9758526 C20.8677325,22.7515994 21.3747257,22.4233008 21.807473,22.0152003 C22.2324421,21.6151811 22.5848826,21.1383905 22.8416622,20.6141228 C23.0552074,20.1777382 23.2018809,19.710039 23.2753186,19.2302179 C23.2866323,19.1554668 23.2962287,19.0817259 23.3041078,19.0069748 C23.3090575,18.8009043 23.3180479,18.5958439 23.3303717,18.3907836 Z" id="path-1"></path>
        <filter x="-1.4%" y="-1.4%" width="102.7%" height="102.7%" filterUnits="objectBoundingBox" id="filter-2">
            <feGaussianBlur stdDeviation="0.5" in="SourceAlpha" result="shadowBlurInner1"></feGaussianBlur>
            <feOffset dx="0" dy="0" in="shadowBlurInner1" result="shadowOffsetInner1"></feOffset>
            <feComposite in="shadowOffsetInner1" in2="SourceAlpha" operator="arithmetic" k2="-1" k3="1" result="shadowInnerInner1"></feComposite>
            <feColorMatrix values="0 0 0 0 0   0 0 0 0 0   0 0 0 0 0  0 0 0 0.300073596 0" type="matrix" in="shadowInnerInner1"></feColorMatrix>
        </filter>
    </defs>
    <g id="Symbols" stroke="none" stroke-width="1" fill="none" fill-rule="evenodd">
        <g id="home-real-estate-school-logo-blue">
            <g>
                <rect id="Rectangle-path" x="0.0650328707" y="0.112710958" width="208.915432" height="67.7208043"></rect>
                <g id="Group" transform="translate(5.763724, 3.246371)" fill="#041EFB">
                    <path d="M26.2840436,0.10000481 C26.334551,0.10000481 26.3840482,0.10000481 26.4345556,0.10000481 C40.8382519,0.10000481 52.532732,11.7945067 52.532732,26.1982298 C52.532732,36.848237 46.1395071,46.0173649 36.9845383,50.0731156 C36.5279516,50.2822165 36.0632836,50.4771754 35.5935649,50.6600125 L35.5925548,50.6600125 C35.0854606,50.8792149 34.6238231,51.0428592 34.2005712,51.1691279 C31.8893533,52.0035114 29.8236012,52.9207273 28.2336287,57.1926499 L26.2840436,62.4282553 L26.2840436,62.4282553 L26.2840436,62.4282553 L26.2840436,62.4282553 L26.2840436,62.4282553 L24.3354686,57.1926499 C22.7980238,53.0631584 20.7403529,52.0358362 18.4937844,51.2065034 C17.9957816,51.0630622 17.4533322,50.8721439 16.8583552,50.6084949 L16.8583552,50.6084949 C16.3482306,50.4115157 15.8461872,50.197364 15.3532351,49.9690702 C6.32251456,45.862812 0.0363653178,36.7583337 0.0363653178,26.1982298 C0.0363653178,11.7945067 11.7308454,0.10000481 26.1345417,0.10000481 C26.1850491,0.10000481 26.2345463,0.10000481 26.2840436,0.10000481 Z" id="Shape"></path>
                </g>
                <g id="Group" transform="translate(13.510890, 11.300192)">
                    <g id="Shape">
                        <g>
                            <use fill="#FFFFFF" fill-rule="evenodd" xlink:href="#path-1"></use>
                            <use fill="black" fill-opacity="1" filter="url(#filter-2)" xlink:href="#path-1"></use>
                        </g>
                    </g>
                </g>
                <g id="Group" transform="translate(68.580168, 8.594626)" fill-rule="nonzero" fill="#2E00FF">
                    <polygon id="Shape" points="26.2830482 30.5956914 26.2830482 1.69787411 20.6121579 1.69787411 20.6121579 13.311333 8.01395267 13.311333 8.01395267 1.69787411 2.37701986 1.69787411 2.37701986 30.5956914 8.01395267 30.5956914 8.01395267 18.6087002 20.6121579 18.6087002 20.6121579 30.5956914"></polygon>
                    <path d="M39.7301891,26.2491337 C37.0815098,26.2491337 34.6365751,24.3135572 34.6365751,20.5782342 C34.6365751,16.7749962 37.0815098,14.8733772 39.7301891,14.8733772 C42.3788684,14.8733772 44.8238031,16.7749962 44.8238031,20.5782342 C44.8238031,24.3475147 42.3788684,26.2491337 39.7301891,26.2491337 Z M39.7301891,9.91558479 C33.7197246,9.91558479 29.2033869,14.364015 29.2033869,20.5782342 C29.2033869,26.7245385 33.7197246,31.2069261 39.7301891,31.2069261 C45.7066962,31.2069261 50.2230339,26.7245385 50.2230339,20.5782342 C50.2230339,14.364015 45.7066962,9.91558479 39.7301891,9.91558479 Z" id="Shape"></path>
                    <path d="M58.3049014,30.5956914 L58.3049014,18.8464026 C58.3049014,16.6391663 59.6971559,14.9073347 62.0402184,14.9073347 C64.4851531,14.9073347 65.6057482,16.5372938 65.6057482,18.6766152 L65.6057482,30.5956914 L70.9710216,30.5956914 L70.9710216,18.8464026 C70.9710216,16.6731237 72.363276,14.9073347 74.6723811,14.9073347 C77.1852306,14.9073347 78.2379108,16.5372938 78.2379108,18.6766152 L78.2379108,30.5956914 L83.501312,30.5956914 L83.501312,17.5899758 C83.501312,12.2246936 79.9357822,9.98349975 76.2344227,9.98349975 C73.5857434,9.98349975 71.480383,10.8663943 69.8843839,13.311333 C68.8656611,11.1380541 66.6584284,9.98349975 63.9078768,9.98349975 C61.7346015,9.98349975 59.1538371,11.0361817 58.0671995,12.9717582 L58.0671995,10.5268195 L52.8717132,10.5268195 L52.8717132,30.5956914 L58.3049014,30.5956914 Z" id="Shape"></path>
                    <path d="M91.3115201,18.2691254 C91.4473498,16.4354214 92.975434,14.3300575 95.7939004,14.3300575 C98.8840262,14.3300575 100.208366,16.2995914 100.276281,18.2691254 L91.3115201,18.2691254 Z M100.8196,23.4985776 C100.140451,25.2983242 98.7821539,26.554751 96.2353469,26.554751 C93.5527102,26.554751 91.3115201,24.653132 91.1756904,22.0044484 L105.539682,22.0044484 C105.539682,21.902576 105.607597,21.0875964 105.607597,20.3065743 C105.607597,13.8886102 101.906237,9.91558479 95.7259855,9.91558479 C90.5644567,9.91558479 85.8443744,14.0923551 85.8443744,20.4763617 C85.8443744,27.2339007 90.7002864,31.2069261 96.2013895,31.2069261 C101.125216,31.2069261 104.317214,28.3205401 105.335937,24.8568769 L100.8196,23.4985776 Z" id="Shape"></path>
                </g>
                <g id="Group" transform="translate(70.457235, 42.880570)" fill-rule="nonzero" fill="#2E00FF">
                    <path d="M4.03743611,7.66420147 L5.79163249,7.66420147 L4.33676327,4.76141126 C5.22082256,4.44816052 5.75682701,3.710281 5.75682701,2.74268427 C5.75682701,1.46879792 4.84492333,0.501201186 3.43182069,0.501201186 L0.591693223,0.501201186 L0.591693223,7.66420147 L2.18578438,7.66420147 L2.18578438,4.9980896 L2.75659431,4.9980896 L4.03743611,7.66420147 Z M2.18578438,3.61978634 L2.18578438,1.88646557 L3.12553244,1.88646557 C3.78683663,1.88646557 4.13489146,2.2205997 4.13489146,2.74964539 C4.13489146,3.25780771 3.78683663,3.61978634 3.12553244,3.61978634 L2.18578438,3.61978634 Z" id="Shape"></path>
                    <polygon id="Shape" points="12.4882076 7.66420147 12.4882076 6.14667565 9.54366363 6.14667565 9.54366363 4.77533352 12.2097637 4.77533352 12.2097637 3.36918575 9.54366363 3.36918575 9.54366363 2.00480474 12.4812465 2.00480474 12.4812465 0.501201186 7.94261138 0.501201186 7.94261138 7.66420147"></polygon>
                    <path d="M19.644215,7.66420147 L21.3844892,7.66420147 L18.711428,0.501201186 L16.8667374,0.501201186 L14.1658319,7.66420147 L15.8434562,7.66420147 L16.3585773,6.2093258 L19.1290938,6.2093258 L19.644215,7.66420147 Z M17.7647189,2.27628872 L18.6209338,4.75445014 L16.8876207,4.75445014 L17.7647189,2.27628872 Z" id="Shape"></path>
                    <polygon id="Shape" points="27.9557645 7.66420147 27.9557645 6.13971453 24.8650376 6.13971453 24.8650376 0.501201186 23.2709464 0.501201186 23.2709464 7.66420147"></polygon>
                    <polygon id="Shape" points="38.0354326 7.66420147 38.0354326 6.14667565 35.0908887 6.14667565 35.0908887 4.77533352 37.7569887 4.77533352 37.7569887 3.36918575 35.0908887 3.36918575 35.0908887 2.00480474 38.0284715 2.00480474 38.0284715 0.501201186 33.4898364 0.501201186 33.4898364 7.66420147"></polygon>
                    <path d="M45.3237009,2.25540534 C45.1705568,1.42007003 44.4953304,0.348056379 42.7063285,0.348056379 C41.3349924,0.348056379 40.1376838,1.29476973 40.1376838,2.65218961 C40.1376838,3.710281 40.8755601,4.5177718 42.0867909,4.75445014 L43.0683055,4.93543945 C43.5416601,5.02593411 43.8340262,5.29045696 43.8340262,5.6524356 C43.8340262,6.09794776 43.4511659,6.39727625 42.8246672,6.39727625 C41.8431525,6.39727625 41.4046034,5.82646378 41.3419535,5.16515666 L39.8731621,5.52017417 C39.9775786,6.52953767 40.8268324,7.81734627 42.8037839,7.81734627 C44.5162137,7.81734627 45.4559617,6.67572135 45.4559617,5.54801868 C45.4559617,4.53169405 44.7459299,3.65459198 43.3815549,3.39703026 L42.4209235,3.21604094 C41.9266857,3.12554628 41.7178528,2.87494569 41.7178528,2.53385044 C41.7178528,2.13706617 42.1007131,1.76116528 42.6924063,1.76116528 C43.5625434,1.76116528 43.8340262,2.33197774 43.889715,2.65915074 L45.3237009,2.25540534 Z" id="Shape"></path>
                    <polygon id="Shape" points="52.9669851 2.02568813 52.9669851 0.501201186 46.9595586 0.501201186 46.9595586 2.02568813 49.1592652 2.02568813 49.1592652 7.66420147 50.7533563 7.66420147 50.7533563 2.02568813"></polygon>
                    <path d="M59.0927502,7.66420147 L60.8260633,7.66420147 L58.1599633,0.501201186 L56.3152726,0.501201186 L53.6143671,7.66420147 L55.2919914,7.66420147 L55.8071126,6.2093258 L58.5776291,6.2093258 L59.0927502,7.66420147 Z M57.2132541,2.27628872 L58.069469,4.75445014 L56.3291948,4.75445014 L57.2132541,2.27628872 Z" id="Shape"></path>
                    <polygon id="Shape" points="67.4808718 2.02568813 67.4808718 0.501201186 61.4734453 0.501201186 61.4734453 2.02568813 63.6731519 2.02568813 63.6731519 7.66420147 65.2742041 7.66420147 65.2742041 2.02568813"></polygon>
                    <polygon id="Shape" points="74.0103806 7.66420147 74.0103806 6.14667565 71.0588755 6.14667565 71.0588755 4.77533352 73.7249756 4.77533352 73.7249756 3.36918575 71.0588755 3.36918575 71.0588755 2.00480474 74.0034195 2.00480474 74.0034195 0.501201186 69.4647844 0.501201186 69.4647844 7.66420147"></polygon>
                    <path d="M84.7861583,2.25540534 C84.6399753,1.42007003 83.9577878,0.348056379 82.1687859,0.348056379 C80.7974499,0.348056379 79.6071023,1.29476973 79.6071023,2.65218961 C79.6071023,3.710281 80.3449786,4.5177718 81.5562094,4.75445014 L82.5377241,4.93543945 C83.0110786,5.02593411 83.3034447,5.29045696 83.3034447,5.6524356 C83.3034447,6.09794776 82.9205844,6.39727625 82.2940857,6.39727625 C81.312571,6.39727625 80.8670608,5.82646378 80.8113721,5.16515666 L79.3425807,5.52017417 C79.4469971,6.52953767 80.2962509,7.81734627 82.2732024,7.81734627 C83.9786711,7.81734627 84.9184191,6.67572135 84.9184191,5.54801868 C84.9184191,4.53169405 84.2153484,3.65459198 82.8509734,3.39703026 L81.8903421,3.21604094 C81.3961042,3.12554628 81.1803102,2.87494569 81.1803102,2.53385044 C81.1803102,2.13706617 81.5631705,1.76116528 82.1618248,1.76116528 C83.0319619,1.76116528 83.3034447,2.33197774 83.3521724,2.65915074 L84.7861583,2.25540534 Z" id="Shape"></path>
                    <path d="M90.3132691,7.81734627 C92.533859,7.81734627 93.4875292,6.29982046 93.7172454,5.31134034 L92.1927652,4.87278931 C92.0535433,5.38791275 91.5593054,6.21628693 90.3132691,6.21628693 C89.2412602,6.21628693 88.2527845,5.43664064 88.2527845,4.09314302 C88.2527845,2.58953946 89.3317545,1.90038783 90.2923858,1.90038783 C91.5593054,1.90038783 92.0117767,2.74268427 92.1231543,3.23692432 L93.6267512,2.76356765 C93.397035,1.73332077 92.4433647,0.348056379 90.2923858,0.348056379 C88.2945511,0.348056379 86.5960435,1.86558219 86.5960435,4.09314302 C86.5960435,6.32766497 88.2527845,7.81734627 90.3132691,7.81734627 Z" id="Shape"></path>
                    <polygon id="Shape" points="101.882612 7.66420147 101.882612 0.501201186 100.274599 0.501201186 100.274599 3.3065356 97.4135878 3.3065356 97.4135878 0.501201186 95.8194966 0.501201186 95.8194966 7.66420147 97.4135878 7.66420147 97.4135878 4.81013916 100.274599 4.81013916 100.274599 7.66420147"></polygon>
                    <path d="M105.67641,4.07922076 C105.67641,2.58257833 106.748419,1.90038783 107.750816,1.90038783 C108.739292,1.90038783 109.811301,2.58257833 109.811301,4.07922076 C109.811301,5.56890206 108.739292,6.23717031 107.750816,6.23717031 C106.748419,6.23717031 105.67641,5.56890206 105.67641,4.07922076 Z M104.019669,4.08618189 C104.019669,6.34854835 105.732098,7.81734627 107.750816,7.81734627 C109.762573,7.81734627 111.468042,6.34854835 111.468042,4.08618189 C111.468042,1.8168543 109.762573,0.348056379 107.750816,0.348056379 C105.732098,0.348056379 104.019669,1.8168543 104.019669,4.08618189 Z" id="Shape"></path>
                    <path d="M114.858096,4.07922076 C114.858096,2.58257833 115.930105,1.90038783 116.932503,1.90038783 C117.920979,1.90038783 118.992988,2.58257833 118.992988,4.07922076 C118.992988,5.56890206 117.920979,6.23717031 116.932503,6.23717031 C115.930105,6.23717031 114.858096,5.56890206 114.858096,4.07922076 Z M113.201355,4.08618189 C113.201355,6.34854835 114.906824,7.81734627 116.932503,7.81734627 C118.937299,7.81734627 120.649729,6.34854835 120.649729,4.08618189 C120.649729,1.8168543 118.937299,0.348056379 116.932503,0.348056379 C114.906824,0.348056379 113.201355,1.8168543 113.201355,4.08618189 Z" id="Shape"></path>
                    <polygon id="Shape" points="127.485526 7.66420147 127.485526 6.13971453 124.394799 6.13971453 124.394799 0.501201186 122.800708 0.501201186 122.800708 7.66420147"></polygon>
                </g>
            </g>
        </g>
    </g>
</svg>